<?xml version="1.0" encoding="utf-8"?>
<!-- Generator: Adobe Illustrator 15.0.0, SVG Export Plug-In . SVG Version: 6.00 Build 0)  -->
<!DOCTYPE svg PUBLIC "-//W3C//DTD SVG 1.1//EN" "http://www.w3.org/Graphics/SVG/1.1/DTD/svg11.dtd">
<svg version="1.1" id="Layer_1" xmlns="http://www.w3.org/2000/svg" xmlns:xlink="http://www.w3.org/1999/xlink" x="0px" y="0px"
	 width="26px" height="26px" viewBox="0 0 26 26" enable-background="new 0 0 26 26" xml:space="preserve">
<g>
	<path d="M21.146,19.789l-2.747-2.395l-1.518-2.277l0.172-2.91l0.811,1.992c0.165,0.406,0.631,0.604,1.038,0.438
		s0.604-0.631,0.438-1.039l-1.818-4.465c-1.089-1.475-2.866-0.863-2.919-0.93l-3.004-3.771c-0.273-0.344-0.509-0.402-0.853-0.127
		c-0.345,0.274-0.401,0.775-0.127,1.119l3.002,3.771c0.163,0.205,0.459,2.942,0.459,2.942l-0.647,2.634c0,0-0.243,1.922-0.193,2.518
		c0.051,0.596,2.131,3.25,2.131,3.25c1.117,1.795,1.565,1.254,1.565,1.254s0.646-0.205,0.151-1l-2.124-3.039l0.201-2.527
		l1.855,2.701l2.354,1.904c0.655,0.584,0.967,0.904,1.411,0.777C21.57,20.309,21.146,19.789,21.146,19.789z"/>
	<circle cx="16.156" cy="6.113" r="1.822"/>
	<ellipse cx="6.931" cy="5.21" rx="2.19" ry="0.753"/>
</g>
</svg>
